<?xml version="1.0" encoding="UTF-8" standalone="no"?><svg xmlns="http://www.w3.org/2000/svg" xmlns:xlink="http://www.w3.org/1999/xlink" contentScriptType="application/ecmascript" contentStyleType="text/css" height="802px" preserveAspectRatio="none" style="width:1605px;height:802px;" version="1.1" viewBox="0 0 1605 802" width="1605px" zoomAndPan="magnify"><defs><filter height="300%" id="fgwsga6pcyb1h" width="300%" x="-1" y="-1"><feGaussianBlur result="blurOut" stdDeviation="2.0"/><feColorMatrix in="blurOut" result="blurOut2" type="matrix" values="0 0 0 0 0 0 0 0 0 0 0 0 0 0 0 0 0 0 .4 0"/><feOffset dx="4.0" dy="4.0" in="blurOut2" result="blurOut3"/><feBlend in="SourceGraphic" in2="blurOut3" mode="normal"/></filter></defs><g><!--cluster RethinkDB--><polygon fill="#FFFFFF" filter="url(#fgwsga6pcyb1h)" points="22,24,108,24,115,46.2969,1583,46.2969,1583,790,22,790,22,24" style="stroke: #000000; stroke-width: 1.5;"/><line style="stroke: #000000; stroke-width: 1.5;" x1="22" x2="115" y1="46.2969" y2="46.2969"/><text fill="#000000" font-family="sans-serif" font-size="14" font-weight="bold" lengthAdjust="spacingAndGlyphs" textLength="80" x="26" y="38.9951">RethinkDB</text><!--cluster Off Chain Tables--><polygon fill="#FFFFFF" filter="url(#fgwsga6pcyb1h)" points="715,67,851,67,858,89.2969,1559,89.2969,1559,766,715,766,715,67" style="stroke: #000000; stroke-width: 1.5;"/><line style="stroke: #000000; stroke-width: 1.5;" x1="715" x2="858" y1="89.2969" y2="89.2969"/><text fill="#000000" font-family="sans-serif" font-size="14" font-weight="bold" lengthAdjust="spacingAndGlyphs" textLength="130" x="719" y="81.9951">Off Chain Tables</text><!--cluster Queues--><polygon fill="#FFFFFF" filter="url(#fgwsga6pcyb1h)" points="1199,156.5,1266,156.5,1273,178.7969,1535,178.7969,1535,255.5,1199,255.5,1199,156.5" style="stroke: #000000; stroke-width: 1.5;"/><line style="stroke: #000000; stroke-width: 1.5;" x1="1199" x2="1273" y1="178.7969" y2="178.7969"/><text fill="#000000" font-family="sans-serif" font-size="14" font-weight="bold" lengthAdjust="spacingAndGlyphs" textLength="61" x="1203" y="171.4951">Queues</text><!--cluster On Chain Tables--><polygon fill="#FFFFFF" filter="url(#fgwsga6pcyb1h)" points="46,73.5,180,73.5,187,95.7969,691,95.7969,691,766,46,766,46,73.5" style="stroke: #000000; stroke-width: 1.5;"/><line style="stroke: #000000; stroke-width: 1.5;" x1="46" x2="187" y1="95.7969" y2="95.7969"/><text fill="#000000" font-family="sans-serif" font-size="14" font-weight="bold" lengthAdjust="spacingAndGlyphs" textLength="128" x="50" y="88.4951">On Chain Tables</text><!--class user_mapping--><rect fill="#FEFECE" filter="url(#fgwsga6pcyb1h)" height="201.6563" id="user_mapping" style="stroke: #A80036; stroke-width: 1.5;" width="120" x="731" y="114.5"/><ellipse cx="746" cy="130.5" fill="#ADD8E6" rx="11" ry="11" style="stroke: #A80036; stroke-width: 1.0;"/><path d="M746.4375,128.0313 L746.4375,134.5469 L747.5625,134.5469 C748.0156,134.5469 748.1563,134.5781 748.3125,134.7031 C748.5469,134.875 748.6719,135.125 748.6719,135.4063 C748.6719,135.6875 748.5313,135.9844 748.2656,136.125 C748.1563,136.2031 747.8906,136.25 747.5625,136.25 L743.625,136.25 C743.2344,136.25 743.0156,136.2031 742.8594,136.0781 C742.6406,135.9219 742.5,135.6563 742.5,135.4063 C742.5,135.1094 742.6563,134.8281 742.9063,134.6719 C743.0625,134.5625 743.1875,134.5469 743.625,134.5469 L744.7344,134.5469 L744.7344,128.0313 L742.9063,128.0313 L742.9063,129.625 C742.9063,130.0781 742.875,130.2188 742.7656,130.3906 C742.5938,130.6094 742.3438,130.7344 742.0625,130.7344 C741.7813,130.7344 741.4844,130.5938 741.3281,130.3281 C741.25,130.1875 741.2188,130.0156 741.2188,129.625 L741.2188,126.3438 L749.9844,126.3438 L749.9844,129.625 C749.9844,130.0938 749.9688,130.2188 749.8281,130.3906 C749.6563,130.6094 749.4063,130.7344 749.1406,130.7344 C748.8438,130.7344 748.5625,130.5781 748.4063,130.3281 C748.3125,130.1875 748.2813,130.0156 748.2813,129.625 L748.2813,128.0313 Z "/><text fill="#000000" font-family="sans-serif" font-size="12" lengthAdjust="spacingAndGlyphs" textLength="88" x="760" y="134.6543">user_mapping</text><line style="stroke: #A80036; stroke-width: 1.5;" x1="732" x2="850" y1="146.5" y2="146.5"/><polygon fill="none" points="742,153.4023,746,157.4023,742,161.4023,738,157.4023" style="stroke: #B38D22; stroke-width: 1.0;"/><text fill="#000000" font-family="sans-serif" font-size="11" lengthAdjust="spacingAndGlyphs" textLength="33" x="751" y="160.7104">active</text><polygon fill="none" points="742,166.207,746,170.207,742,174.207,738,170.207" style="stroke: #B38D22; stroke-width: 1.0;"/><text fill="#000000" font-family="sans-serif" font-size="11" lengthAdjust="spacingAndGlyphs" textLength="81" x="751" y="173.5151">encrypted_key</text><polygon fill="none" points="742,179.0117,746,183.0117,742,187.0117,738,183.0117" style="stroke: #B38D22; stroke-width: 1.0;"/><text fill="#000000" font-family="sans-serif" font-size="11" lengthAdjust="spacingAndGlyphs" textLength="40" x="751" y="186.3198">next_id</text><polygon fill="none" points="742,191.8164,746,195.8164,742,199.8164,738,195.8164" style="stroke: #B38D22; stroke-width: 1.0;"/><text fill="#000000" font-family="sans-serif" font-size="11" lengthAdjust="spacingAndGlyphs" textLength="63" x="751" y="199.1245">provider_id</text><polygon fill="none" points="742,204.6211,746,208.6211,742,212.6211,738,208.6211" style="stroke: #B38D22; stroke-width: 1.0;"/><text fill="#000000" font-family="sans-serif" font-size="11" lengthAdjust="spacingAndGlyphs" textLength="58" x="751" y="211.9292">public_key</text><polygon fill="none" points="742,217.4258,746,221.4258,742,225.4258,738,221.4258" style="stroke: #B38D22; stroke-width: 1.0;"/><text fill="#000000" font-family="sans-serif" font-size="11" lengthAdjust="spacingAndGlyphs" textLength="57" x="751" y="224.7339">remote_id</text><polygon fill="none" points="742,230.2305,746,234.2305,742,238.2305,738,234.2305" style="stroke: #B38D22; stroke-width: 1.0;"/><text fill="#000000" font-family="sans-serif" font-size="11" lengthAdjust="spacingAndGlyphs" textLength="33" x="751" y="237.5386">active</text><polygon fill="none" points="742,243.0352,746,247.0352,742,251.0352,738,247.0352" style="stroke: #B38D22; stroke-width: 1.0;"/><text fill="#000000" font-family="sans-serif" font-size="11" lengthAdjust="spacingAndGlyphs" textLength="81" x="751" y="250.3433">encrypted_key</text><polygon fill="none" points="742,255.8398,746,259.8398,742,263.8398,738,259.8398" style="stroke: #B38D22; stroke-width: 1.0;"/><text fill="#000000" font-family="sans-serif" font-size="11" lengthAdjust="spacingAndGlyphs" textLength="40" x="751" y="263.1479">next_id</text><polygon fill="none" points="742,268.6445,746,272.6445,742,276.6445,738,272.6445" style="stroke: #B38D22; stroke-width: 1.0;"/><text fill="#000000" font-family="sans-serif" font-size="11" lengthAdjust="spacingAndGlyphs" textLength="63" x="751" y="275.9526">provider_id</text><polygon fill="none" points="742,281.4492,746,285.4492,742,289.4492,738,285.4492" style="stroke: #B38D22; stroke-width: 1.0;"/><text fill="#000000" font-family="sans-serif" font-size="11" lengthAdjust="spacingAndGlyphs" textLength="58" x="751" y="288.7573">public_key</text><polygon fill="none" points="742,294.2539,746,298.2539,742,302.2539,738,298.2539" style="stroke: #B38D22; stroke-width: 1.0;"/><text fill="#000000" font-family="sans-serif" font-size="11" lengthAdjust="spacingAndGlyphs" textLength="57" x="751" y="301.562">remote_id</text><line style="stroke: #A80036; stroke-width: 1.5;" x1="732" x2="850" y1="308.1563" y2="308.1563"/><!--class auth--><rect fill="#FEFECE" filter="url(#fgwsga6pcyb1h)" height="112.0234" id="auth" style="stroke: #A80036; stroke-width: 1.5;" width="152" x="886" y="159.5"/><ellipse cx="943.25" cy="175.5" fill="#ADD8E6" rx="11" ry="11" style="stroke: #A80036; stroke-width: 1.0;"/><path d="M943.6875,173.0313 L943.6875,179.5469 L944.8125,179.5469 C945.2656,179.5469 945.4063,179.5781 945.5625,179.7031 C945.7969,179.875 945.9219,180.125 945.9219,180.4063 C945.9219,180.6875 945.7813,180.9844 945.5156,181.125 C945.4063,181.2031 945.1406,181.25 944.8125,181.25 L940.875,181.25 C940.4844,181.25 940.2656,181.2031 940.1094,181.0781 C939.8906,180.9219 939.75,180.6563 939.75,180.4063 C939.75,180.1094 939.9063,179.8281 940.1563,179.6719 C940.3125,179.5625 940.4375,179.5469 940.875,179.5469 L941.9844,179.5469 L941.9844,173.0313 L940.1563,173.0313 L940.1563,174.625 C940.1563,175.0781 940.125,175.2188 940.0156,175.3906 C939.8438,175.6094 939.5938,175.7344 939.3125,175.7344 C939.0313,175.7344 938.7344,175.5938 938.5781,175.3281 C938.5,175.1875 938.4688,175.0156 938.4688,174.625 L938.4688,171.3438 L947.2344,171.3438 L947.2344,174.625 C947.2344,175.0938 947.2188,175.2188 947.0781,175.3906 C946.9063,175.6094 946.6563,175.7344 946.3906,175.7344 C946.0938,175.7344 945.8125,175.5781 945.6563,175.3281 C945.5625,175.1875 945.5313,175.0156 945.5313,174.625 L945.5313,173.0313 Z "/><text fill="#000000" font-family="sans-serif" font-size="12" lengthAdjust="spacingAndGlyphs" textLength="29" x="963.75" y="179.6543">auth</text><line style="stroke: #A80036; stroke-width: 1.5;" x1="887" x2="1037" y1="191.5" y2="191.5"/><polygon fill="none" points="897,198.4023,901,202.4023,897,206.4023,893,202.4023" style="stroke: #B38D22; stroke-width: 1.0;"/><text fill="#000000" font-family="sans-serif" font-size="11" lengthAdjust="spacingAndGlyphs" textLength="31" x="906" y="205.7104">email</text><polygon fill="none" points="897,211.207,901,215.207,897,219.207,893,215.207" style="stroke: #B38D22; stroke-width: 1.0;"/><text fill="#000000" font-family="sans-serif" font-size="11" lengthAdjust="spacingAndGlyphs" textLength="126" x="906" y="218.5151">encrypted_private_key</text><polygon fill="none" points="897,224.0117,901,228.0117,897,232.0117,893,228.0117" style="stroke: #B38D22; stroke-width: 1.0;"/><text fill="#000000" font-family="sans-serif" font-size="11" lengthAdjust="spacingAndGlyphs" textLength="40" x="906" y="231.3198">next_id</text><polygon fill="none" points="897,236.8164,901,240.8164,897,244.8164,893,240.8164" style="stroke: #B38D22; stroke-width: 1.0;"/><text fill="#000000" font-family="sans-serif" font-size="11" lengthAdjust="spacingAndGlyphs" textLength="58" x="906" y="244.1245">public_key</text><polygon fill="none" points="897,249.6211,901,253.6211,897,257.6211,893,253.6211" style="stroke: #B38D22; stroke-width: 1.0;"/><text fill="#000000" font-family="sans-serif" font-size="11" lengthAdjust="spacingAndGlyphs" textLength="58" x="906" y="256.9292">username</text><line style="stroke: #A80036; stroke-width: 1.5;" x1="887" x2="1037" y1="263.5234" y2="263.5234"/><!--class changelog--><rect fill="#FEFECE" filter="url(#fgwsga6pcyb1h)" height="227.2656" id="changelog" style="stroke: #A80036; stroke-width: 1.5;" width="107" x="1073.5" y="102"/><ellipse cx="1092.55" cy="118" fill="#ADD8E6" rx="11" ry="11" style="stroke: #A80036; stroke-width: 1.0;"/><path d="M1092.9875,115.5313 L1092.9875,122.0469 L1094.1125,122.0469 C1094.5656,122.0469 1094.7063,122.0781 1094.8625,122.2031 C1095.0969,122.375 1095.2219,122.625 1095.2219,122.9063 C1095.2219,123.1875 1095.0813,123.4844 1094.8156,123.625 C1094.7063,123.7031 1094.4406,123.75 1094.1125,123.75 L1090.175,123.75 C1089.7844,123.75 1089.5656,123.7031 1089.4094,123.5781 C1089.1906,123.4219 1089.05,123.1563 1089.05,122.9063 C1089.05,122.6094 1089.2063,122.3281 1089.4563,122.1719 C1089.6125,122.0625 1089.7375,122.0469 1090.175,122.0469 L1091.2844,122.0469 L1091.2844,115.5313 L1089.4563,115.5313 L1089.4563,117.125 C1089.4563,117.5781 1089.425,117.7188 1089.3156,117.8906 C1089.1438,118.1094 1088.8938,118.2344 1088.6125,118.2344 C1088.3313,118.2344 1088.0344,118.0938 1087.8781,117.8281 C1087.8,117.6875 1087.7688,117.5156 1087.7688,117.125 L1087.7688,113.8438 L1096.5344,113.8438 L1096.5344,117.125 C1096.5344,117.5938 1096.5188,117.7188 1096.3781,117.8906 C1096.2063,118.1094 1095.9563,118.2344 1095.6906,118.2344 C1095.3938,118.2344 1095.1125,118.0781 1094.9563,117.8281 C1094.8625,117.6875 1094.8313,117.5156 1094.8313,117.125 L1094.8313,115.5313 Z "/><text fill="#000000" font-family="sans-serif" font-size="12" lengthAdjust="spacingAndGlyphs" textLength="66" x="1107.45" y="122.1543">changelog</text><line style="stroke: #A80036; stroke-width: 1.5;" x1="1074.5" x2="1179.5" y1="134" y2="134"/><polygon fill="none" points="1084.5,140.9023,1088.5,144.9023,1084.5,148.9023,1080.5,144.9023" style="stroke: #B38D22; stroke-width: 1.0;"/><text fill="#000000" font-family="sans-serif" font-size="11" lengthAdjust="spacingAndGlyphs" textLength="47" x="1093.5" y="148.2104">address</text><polygon fill="none" points="1084.5,153.707,1088.5,157.707,1084.5,161.707,1080.5,157.707" style="stroke: #B38D22; stroke-width: 1.0;"/><text fill="#000000" font-family="sans-serif" font-size="11" lengthAdjust="spacingAndGlyphs" textLength="31" x="1093.5" y="161.0151">batch</text><polygon fill="none" points="1084.5,166.5117,1088.5,170.5117,1084.5,174.5117,1080.5,170.5117" style="stroke: #B38D22; stroke-width: 1.0;"/><text fill="#000000" font-family="sans-serif" font-size="11" lengthAdjust="spacingAndGlyphs" textLength="25" x="1093.5" y="173.8198">data</text><polygon fill="none" points="1084.5,179.3164,1088.5,183.3164,1084.5,187.3164,1080.5,183.3164" style="stroke: #B38D22; stroke-width: 1.0;"/><text fill="#000000" font-family="sans-serif" font-size="11" lengthAdjust="spacingAndGlyphs" textLength="55" x="1093.5" y="186.6245">data_type</text><polygon fill="none" points="1084.5,192.1211,1088.5,196.1211,1084.5,200.1211,1080.5,196.1211" style="stroke: #B38D22; stroke-width: 1.0;"/><text fill="#000000" font-family="sans-serif" font-size="11" lengthAdjust="spacingAndGlyphs" textLength="10" x="1093.5" y="199.4292">id</text><polygon fill="none" points="1084.5,204.9258,1088.5,208.9258,1084.5,212.9258,1080.5,208.9258" style="stroke: #B38D22; stroke-width: 1.0;"/><text fill="#000000" font-family="sans-serif" font-size="11" lengthAdjust="spacingAndGlyphs" textLength="40" x="1093.5" y="212.2339">next_id</text><polygon fill="none" points="1084.5,217.7305,1088.5,221.7305,1084.5,225.7305,1080.5,221.7305" style="stroke: #B38D22; stroke-width: 1.0;"/><text fill="#000000" font-family="sans-serif" font-size="11" lengthAdjust="spacingAndGlyphs" textLength="50" x="1093.5" y="225.0386">object_id</text><polygon fill="none" points="1084.5,230.5352,1088.5,234.5352,1084.5,238.5352,1080.5,234.5352" style="stroke: #B38D22; stroke-width: 1.0;"/><text fill="#000000" font-family="sans-serif" font-size="11" lengthAdjust="spacingAndGlyphs" textLength="64" x="1093.5" y="237.8433">object_type</text><polygon fill="none" points="1084.5,243.3398,1088.5,247.3398,1084.5,251.3398,1080.5,247.3398" style="stroke: #B38D22; stroke-width: 1.0;"/><text fill="#000000" font-family="sans-serif" font-size="11" lengthAdjust="spacingAndGlyphs" textLength="64" x="1093.5" y="250.6479">private_key</text><polygon fill="none" points="1084.5,256.1445,1088.5,260.1445,1084.5,264.1445,1080.5,260.1445" style="stroke: #B38D22; stroke-width: 1.0;"/><text fill="#000000" font-family="sans-serif" font-size="11" lengthAdjust="spacingAndGlyphs" textLength="63" x="1093.5" y="263.4526">provider_id</text><polygon fill="none" points="1084.5,268.9492,1088.5,272.9492,1084.5,276.9492,1080.5,272.9492" style="stroke: #B38D22; stroke-width: 1.0;"/><text fill="#000000" font-family="sans-serif" font-size="11" lengthAdjust="spacingAndGlyphs" textLength="58" x="1093.5" y="276.2573">public_key</text><polygon fill="none" points="1084.5,281.7539,1088.5,285.7539,1084.5,289.7539,1080.5,285.7539" style="stroke: #B38D22; stroke-width: 1.0;"/><text fill="#000000" font-family="sans-serif" font-size="11" lengthAdjust="spacingAndGlyphs" textLength="81" x="1093.5" y="289.062">sync_direction</text><polygon fill="none" points="1084.5,294.5586,1088.5,298.5586,1084.5,302.5586,1080.5,298.5586" style="stroke: #B38D22; stroke-width: 1.0;"/><text fill="#000000" font-family="sans-serif" font-size="11" lengthAdjust="spacingAndGlyphs" textLength="56" x="1093.5" y="301.8667">sync_type</text><polygon fill="none" points="1084.5,307.3633,1088.5,311.3633,1084.5,315.3633,1080.5,311.3633" style="stroke: #B38D22; stroke-width: 1.0;"/><text fill="#000000" font-family="sans-serif" font-size="11" lengthAdjust="spacingAndGlyphs" textLength="61" x="1093.5" y="314.6714">timestamp</text><line style="stroke: #A80036; stroke-width: 1.5;" x1="1074.5" x2="1179.5" y1="321.2656" y2="321.2656"/><!--class sync_tracker--><rect fill="#FEFECE" filter="url(#fgwsga6pcyb1h)" height="112.0234" id="sync_tracker" style="stroke: #A80036; stroke-width: 1.5;" width="111" x="735.5" y="459.5"/><ellipse cx="750.5" cy="475.5" fill="#ADD8E6" rx="11" ry="11" style="stroke: #A80036; stroke-width: 1.0;"/><path d="M750.9375,473.0313 L750.9375,479.5469 L752.0625,479.5469 C752.5156,479.5469 752.6563,479.5781 752.8125,479.7031 C753.0469,479.875 753.1719,480.125 753.1719,480.4063 C753.1719,480.6875 753.0313,480.9844 752.7656,481.125 C752.6563,481.2031 752.3906,481.25 752.0625,481.25 L748.125,481.25 C747.7344,481.25 747.5156,481.2031 747.3594,481.0781 C747.1406,480.9219 747,480.6563 747,480.4063 C747,480.1094 747.1563,479.8281 747.4063,479.6719 C747.5625,479.5625 747.6875,479.5469 748.125,479.5469 L749.2344,479.5469 L749.2344,473.0313 L747.4063,473.0313 L747.4063,474.625 C747.4063,475.0781 747.375,475.2188 747.2656,475.3906 C747.0938,475.6094 746.8438,475.7344 746.5625,475.7344 C746.2813,475.7344 745.9844,475.5938 745.8281,475.3281 C745.75,475.1875 745.7188,475.0156 745.7188,474.625 L745.7188,471.3438 L754.4844,471.3438 L754.4844,474.625 C754.4844,475.0938 754.4688,475.2188 754.3281,475.3906 C754.1563,475.6094 753.9063,475.7344 753.6406,475.7344 C753.3438,475.7344 753.0625,475.5781 752.9063,475.3281 C752.8125,475.1875 752.7813,475.0156 752.7813,474.625 L752.7813,473.0313 Z "/><text fill="#000000" font-family="sans-serif" font-size="12" lengthAdjust="spacingAndGlyphs" textLength="79" x="764.5" y="479.6543">sync_tracker</text><line style="stroke: #A80036; stroke-width: 1.5;" x1="736.5" x2="845.5" y1="491.5" y2="491.5"/><polygon fill="none" points="746.5,498.4023,750.5,502.4023,746.5,506.4023,742.5,502.4023" style="stroke: #B38D22; stroke-width: 1.0;"/><text fill="#000000" font-family="sans-serif" font-size="11" lengthAdjust="spacingAndGlyphs" textLength="10" x="755.5" y="505.7104">id</text><polygon fill="none" points="746.5,511.207,750.5,515.207,746.5,519.207,742.5,515.207" style="stroke: #B38D22; stroke-width: 1.0;"/><text fill="#000000" font-family="sans-serif" font-size="11" lengthAdjust="spacingAndGlyphs" textLength="63" x="755.5" y="518.5151">provider_id</text><polygon fill="none" points="746.5,524.0117,750.5,528.0117,746.5,532.0117,742.5,528.0117" style="stroke: #B38D22; stroke-width: 1.0;"/><text fill="#000000" font-family="sans-serif" font-size="11" lengthAdjust="spacingAndGlyphs" textLength="39" x="755.5" y="531.3198">source</text><polygon fill="none" points="746.5,536.8164,750.5,540.8164,746.5,544.8164,742.5,540.8164" style="stroke: #B38D22; stroke-width: 1.0;"/><text fill="#000000" font-family="sans-serif" font-size="11" lengthAdjust="spacingAndGlyphs" textLength="56" x="755.5" y="544.1245">sync_type</text><polygon fill="none" points="746.5,549.6211,750.5,553.6211,746.5,557.6211,742.5,553.6211" style="stroke: #B38D22; stroke-width: 1.0;"/><text fill="#000000" font-family="sans-serif" font-size="11" lengthAdjust="spacingAndGlyphs" textLength="61" x="755.5" y="556.9292">timestamp</text><line style="stroke: #A80036; stroke-width: 1.5;" x1="736.5" x2="845.5" y1="563.5234" y2="563.5234"/><!--class sync_errors--><rect fill="#FEFECE" filter="url(#fgwsga6pcyb1h)" height="48" id="sync_errors" style="stroke: #A80036; stroke-width: 1.5;" width="104" x="882" y="491.5"/><ellipse cx="897" cy="507.5" fill="#ADD8E6" rx="11" ry="11" style="stroke: #A80036; stroke-width: 1.0;"/><path d="M897.4375,505.0313 L897.4375,511.5469 L898.5625,511.5469 C899.0156,511.5469 899.1563,511.5781 899.3125,511.7031 C899.5469,511.875 899.6719,512.125 899.6719,512.4063 C899.6719,512.6875 899.5313,512.9844 899.2656,513.125 C899.1563,513.2031 898.8906,513.25 898.5625,513.25 L894.625,513.25 C894.2344,513.25 894.0156,513.2031 893.8594,513.0781 C893.6406,512.9219 893.5,512.6563 893.5,512.4063 C893.5,512.1094 893.6563,511.8281 893.9063,511.6719 C894.0625,511.5625 894.1875,511.5469 894.625,511.5469 L895.7344,511.5469 L895.7344,505.0313 L893.9063,505.0313 L893.9063,506.625 C893.9063,507.0781 893.875,507.2188 893.7656,507.3906 C893.5938,507.6094 893.3438,507.7344 893.0625,507.7344 C892.7813,507.7344 892.4844,507.5938 892.3281,507.3281 C892.25,507.1875 892.2188,507.0156 892.2188,506.625 L892.2188,503.3438 L900.9844,503.3438 L900.9844,506.625 C900.9844,507.0938 900.9688,507.2188 900.8281,507.3906 C900.6563,507.6094 900.4063,507.7344 900.1406,507.7344 C899.8438,507.7344 899.5625,507.5781 899.4063,507.3281 C899.3125,507.1875 899.2813,507.0156 899.2813,506.625 L899.2813,505.0313 Z "/><text fill="#000000" font-family="sans-serif" font-size="12" lengthAdjust="spacingAndGlyphs" textLength="72" x="911" y="511.6543">sync_errors</text><line style="stroke: #A80036; stroke-width: 1.5;" x1="883" x2="985" y1="523.5" y2="523.5"/><line style="stroke: #A80036; stroke-width: 1.5;" x1="883" x2="985" y1="531.5" y2="531.5"/><!--class state--><rect fill="#FEFECE" filter="url(#fgwsga6pcyb1h)" height="48" id="state" style="stroke: #A80036; stroke-width: 1.5;" width="65" x="1021.5" y="491.5"/><ellipse cx="1036.5" cy="507.5" fill="#FFC0CB" rx="11" ry="11" style="stroke: #A80036; stroke-width: 1.0;"/><path d="M1033.7656,510.7969 L1033.7656,504.2813 C1033.0938,504.2813 1032.7188,503.9844 1032.7188,503.4375 C1032.7188,503.1563 1032.875,502.8594 1033.125,502.7031 C1033.2813,502.6094 1033.4063,502.5938 1033.8594,502.5938 L1037.4688,502.5938 C1039.9531,502.5938 1041.8438,504.6406 1041.8438,507.3125 L1041.8438,508.1094 C1041.8438,509.3594 1041.4375,510.4063 1040.6563,511.2188 C1039.8281,512.1094 1038.8125,512.5 1037.3281,512.5 L1033.8594,512.5 C1033.4531,512.5 1033.2344,512.4531 1033.0781,512.3281 C1032.8594,512.1719 1032.7188,511.9063 1032.7188,511.6563 C1032.7188,511.1094 1033.1094,510.7969 1033.7656,510.7969 Z M1035.4531,510.7969 L1037.3438,510.7969 C1038.3594,510.7969 1038.9219,510.5938 1039.4531,510.0469 C1039.9219,509.5313 1040.1563,508.9375 1040.1563,508.0625 L1040.1563,507.2813 C1040.1563,506.4844 1039.875,505.7344 1039.3906,505.1563 C1038.875,504.5625 1038.2344,504.2813 1037.3281,504.2813 L1035.4531,504.2813 Z "/><text fill="#000000" font-family="sans-serif" font-size="12" lengthAdjust="spacingAndGlyphs" textLength="33" x="1050.5" y="511.6543">state</text><line style="stroke: #A80036; stroke-width: 1.5;" x1="1022.5" x2="1085.5" y1="523.5" y2="523.5"/><line style="stroke: #A80036; stroke-width: 1.5;" x1="1022.5" x2="1085.5" y1="531.5" y2="531.5"/><!--class state_history--><rect fill="#FEFECE" filter="url(#fgwsga6pcyb1h)" height="48" id="state_history" style="stroke: #A80036; stroke-width: 1.5;" width="113" x="734.5" y="702"/><ellipse cx="749.5" cy="718" fill="#FFC0CB" rx="11" ry="11" style="stroke: #A80036; stroke-width: 1.0;"/><path d="M746.7656,721.2969 L746.7656,714.7813 C746.0938,714.7813 745.7188,714.4844 745.7188,713.9375 C745.7188,713.6563 745.875,713.3594 746.125,713.2031 C746.2813,713.1094 746.4063,713.0938 746.8594,713.0938 L750.4688,713.0938 C752.9531,713.0938 754.8438,715.1406 754.8438,717.8125 L754.8438,718.6094 C754.8438,719.8594 754.4375,720.9063 753.6563,721.7188 C752.8281,722.6094 751.8125,723 750.3281,723 L746.8594,723 C746.4531,723 746.2344,722.9531 746.0781,722.8281 C745.8594,722.6719 745.7188,722.4063 745.7188,722.1563 C745.7188,721.6094 746.1094,721.2969 746.7656,721.2969 Z M748.4531,721.2969 L750.3438,721.2969 C751.3594,721.2969 751.9219,721.0938 752.4531,720.5469 C752.9219,720.0313 753.1563,719.4375 753.1563,718.5625 L753.1563,717.7813 C753.1563,716.9844 752.875,716.2344 752.3906,715.6563 C751.875,715.0625 751.2344,714.7813 750.3281,714.7813 L748.4531,714.7813 Z "/><text fill="#000000" font-family="sans-serif" font-size="12" lengthAdjust="spacingAndGlyphs" textLength="81" x="763.5" y="722.1543">state_history</text><line style="stroke: #A80036; stroke-width: 1.5;" x1="735.5" x2="846.5" y1="734" y2="734"/><line style="stroke: #A80036; stroke-width: 1.5;" x1="735.5" x2="846.5" y1="742" y2="742"/><!--class inbound_queue--><rect fill="#FEFECE" filter="url(#fgwsga6pcyb1h)" height="48" id="inbound_queue" style="stroke: #A80036; stroke-width: 1.5;" width="129" x="1389.5" y="191.5"/><ellipse cx="1404.5" cy="207.5" fill="#ADD8E6" rx="11" ry="11" style="stroke: #A80036; stroke-width: 1.0;"/><path d="M1404.9375,205.0313 L1404.9375,211.5469 L1406.0625,211.5469 C1406.5156,211.5469 1406.6563,211.5781 1406.8125,211.7031 C1407.0469,211.875 1407.1719,212.125 1407.1719,212.4063 C1407.1719,212.6875 1407.0313,212.9844 1406.7656,213.125 C1406.6563,213.2031 1406.3906,213.25 1406.0625,213.25 L1402.125,213.25 C1401.7344,213.25 1401.5156,213.2031 1401.3594,213.0781 C1401.1406,212.9219 1401,212.6563 1401,212.4063 C1401,212.1094 1401.1563,211.8281 1401.4063,211.6719 C1401.5625,211.5625 1401.6875,211.5469 1402.125,211.5469 L1403.2344,211.5469 L1403.2344,205.0313 L1401.4063,205.0313 L1401.4063,206.625 C1401.4063,207.0781 1401.375,207.2188 1401.2656,207.3906 C1401.0938,207.6094 1400.8438,207.7344 1400.5625,207.7344 C1400.2813,207.7344 1399.9844,207.5938 1399.8281,207.3281 C1399.75,207.1875 1399.7188,207.0156 1399.7188,206.625 L1399.7188,203.3438 L1408.4844,203.3438 L1408.4844,206.625 C1408.4844,207.0938 1408.4688,207.2188 1408.3281,207.3906 C1408.1563,207.6094 1407.9063,207.7344 1407.6406,207.7344 C1407.3438,207.7344 1407.0625,207.5781 1406.9063,207.3281 C1406.8125,207.1875 1406.7813,207.0156 1406.7813,206.625 L1406.7813,205.0313 Z "/><text fill="#000000" font-family="sans-serif" font-size="12" lengthAdjust="spacingAndGlyphs" textLength="97" x="1418.5" y="211.6543">inbound_queue</text><line style="stroke: #A80036; stroke-width: 1.5;" x1="1390.5" x2="1517.5" y1="223.5" y2="223.5"/><line style="stroke: #A80036; stroke-width: 1.5;" x1="1390.5" x2="1517.5" y1="231.5" y2="231.5"/><!--class outbound_queue--><rect fill="#FEFECE" filter="url(#fgwsga6pcyb1h)" height="48" id="outbound_queue" style="stroke: #A80036; stroke-width: 1.5;" width="139" x="1215.5" y="191.5"/><ellipse cx="1230.5" cy="207.5" fill="#ADD8E6" rx="11" ry="11" style="stroke: #A80036; stroke-width: 1.0;"/><path d="M1230.9375,205.0313 L1230.9375,211.5469 L1232.0625,211.5469 C1232.5156,211.5469 1232.6563,211.5781 1232.8125,211.7031 C1233.0469,211.875 1233.1719,212.125 1233.1719,212.4063 C1233.1719,212.6875 1233.0313,212.9844 1232.7656,213.125 C1232.6563,213.2031 1232.3906,213.25 1232.0625,213.25 L1228.125,213.25 C1227.7344,213.25 1227.5156,213.2031 1227.3594,213.0781 C1227.1406,212.9219 1227,212.6563 1227,212.4063 C1227,212.1094 1227.1563,211.8281 1227.4063,211.6719 C1227.5625,211.5625 1227.6875,211.5469 1228.125,211.5469 L1229.2344,211.5469 L1229.2344,205.0313 L1227.4063,205.0313 L1227.4063,206.625 C1227.4063,207.0781 1227.375,207.2188 1227.2656,207.3906 C1227.0938,207.6094 1226.8438,207.7344 1226.5625,207.7344 C1226.2813,207.7344 1225.9844,207.5938 1225.8281,207.3281 C1225.75,207.1875 1225.7188,207.0156 1225.7188,206.625 L1225.7188,203.3438 L1234.4844,203.3438 L1234.4844,206.625 C1234.4844,207.0938 1234.4688,207.2188 1234.3281,207.3906 C1234.1563,207.6094 1233.9063,207.7344 1233.6406,207.7344 C1233.3438,207.7344 1233.0625,207.5781 1232.9063,207.3281 C1232.8125,207.1875 1232.7813,207.0156 1232.7813,206.625 L1232.7813,205.0313 Z "/><text fill="#000000" font-family="sans-serif" font-size="12" lengthAdjust="spacingAndGlyphs" textLength="107" x="1244.5" y="211.6543">outbound_queue</text><line style="stroke: #A80036; stroke-width: 1.5;" x1="1216.5" x2="1353.5" y1="223.5" y2="223.5"/><line style="stroke: #A80036; stroke-width: 1.5;" x1="1216.5" x2="1353.5" y1="231.5" y2="231.5"/><!--class users--><rect fill="#FEFECE" filter="url(#fgwsga6pcyb1h)" height="214.4609" id="users" style="stroke: #A80036; stroke-width: 1.5;" width="140" x="62" y="108.5"/><ellipse cx="110.25" cy="124.5" fill="#ADD8E6" rx="11" ry="11" style="stroke: #A80036; stroke-width: 1.0;"/><path d="M110.6875,122.0313 L110.6875,128.5469 L111.8125,128.5469 C112.2656,128.5469 112.4063,128.5781 112.5625,128.7031 C112.7969,128.875 112.9219,129.125 112.9219,129.4063 C112.9219,129.6875 112.7813,129.9844 112.5156,130.125 C112.4063,130.2031 112.1406,130.25 111.8125,130.25 L107.875,130.25 C107.4844,130.25 107.2656,130.2031 107.1094,130.0781 C106.8906,129.9219 106.75,129.6563 106.75,129.4063 C106.75,129.1094 106.9063,128.8281 107.1563,128.6719 C107.3125,128.5625 107.4375,128.5469 107.875,128.5469 L108.9844,128.5469 L108.9844,122.0313 L107.1563,122.0313 L107.1563,123.625 C107.1563,124.0781 107.125,124.2188 107.0156,124.3906 C106.8438,124.6094 106.5938,124.7344 106.3125,124.7344 C106.0313,124.7344 105.7344,124.5938 105.5781,124.3281 C105.5,124.1875 105.4688,124.0156 105.4688,123.625 L105.4688,120.3438 L114.2344,120.3438 L114.2344,123.625 C114.2344,124.0938 114.2188,124.2188 114.0781,124.3906 C113.9063,124.6094 113.6563,124.7344 113.3906,124.7344 C113.0938,124.7344 112.8125,124.5781 112.6563,124.3281 C112.5625,124.1875 112.5313,124.0156 112.5313,123.625 L112.5313,122.0313 Z "/><text fill="#000000" font-family="sans-serif" font-size="12" lengthAdjust="spacingAndGlyphs" textLength="35" x="130.75" y="128.6543">users</text><line style="stroke: #A80036; stroke-width: 1.5;" x1="63" x2="201" y1="140.5" y2="140.5"/><polygon fill="none" points="73,147.4023,77,151.4023,73,155.4023,69,151.4023" style="stroke: #B38D22; stroke-width: 1.0;"/><text fill="#000000" font-family="sans-serif" font-size="11" lengthAdjust="spacingAndGlyphs" textLength="74" x="82" y="154.7104">created_date</text><polygon fill="none" points="73,160.207,77,164.207,73,168.207,69,164.207" style="stroke: #B38D22; stroke-width: 1.0;"/><text fill="#000000" font-family="sans-serif" font-size="11" lengthAdjust="spacingAndGlyphs" textLength="114" x="82" y="167.5151">distinguished_name</text><polygon fill="none" points="73,173.0117,77,177.0117,73,181.0117,69,177.0117" style="stroke: #B38D22; stroke-width: 1.0;"/><text fill="#000000" font-family="sans-serif" font-size="11" lengthAdjust="spacingAndGlyphs" textLength="31" x="82" y="180.3198">email</text><polygon fill="none" points="73,185.8164,77,189.8164,73,193.8164,69,189.8164" style="stroke: #B38D22; stroke-width: 1.0;"/><text fill="#000000" font-family="sans-serif" font-size="11" lengthAdjust="spacingAndGlyphs" textLength="87" x="82" y="193.1245">end_block_num</text><polygon fill="none" points="73,198.6211,77,202.6211,73,206.6211,69,202.6211" style="stroke: #B38D22; stroke-width: 1.0;"/><text fill="#000000" font-family="sans-serif" font-size="11" lengthAdjust="spacingAndGlyphs" textLength="10" x="82" y="205.9292">id</text><polygon fill="none" points="73,211.4258,77,215.4258,73,219.4258,69,215.4258" style="stroke: #B38D22; stroke-width: 1.0;"/><text fill="#000000" font-family="sans-serif" font-size="11" lengthAdjust="spacingAndGlyphs" textLength="67" x="82" y="218.7339">manager_id</text><polygon fill="none" points="73,224.2305,77,228.2305,73,232.2305,69,228.2305" style="stroke: #B38D22; stroke-width: 1.0;"/><text fill="#000000" font-family="sans-serif" font-size="11" lengthAdjust="spacingAndGlyphs" textLength="58" x="82" y="231.5386">metadata:</text><polygon fill="none" points="73,237.0352,77,241.0352,73,245.0352,69,241.0352" style="stroke: #B38D22; stroke-width: 1.0;"/><text fill="#000000" font-family="sans-serif" font-size="11" lengthAdjust="spacingAndGlyphs" textLength="81" x="114" y="244.3433">sync_direction</text><polygon fill="none" points="73,249.8398,77,253.8398,73,257.8398,69,253.8398" style="stroke: #B38D22; stroke-width: 1.0;"/><text fill="#000000" font-family="sans-serif" font-size="11" lengthAdjust="spacingAndGlyphs" textLength="32" x="82" y="257.1479">name</text><polygon fill="none" points="73,262.6445,77,266.6445,73,270.6445,69,266.6445" style="stroke: #B38D22; stroke-width: 1.0;"/><text fill="#000000" font-family="sans-serif" font-size="11" lengthAdjust="spacingAndGlyphs" textLength="40" x="82" y="269.9526">next_id</text><polygon fill="none" points="73,275.4492,77,279.4492,73,283.4492,69,279.4492" style="stroke: #B38D22; stroke-width: 1.0;"/><text fill="#000000" font-family="sans-serif" font-size="11" lengthAdjust="spacingAndGlyphs" textLength="57" x="82" y="282.7573">remote_id</text><polygon fill="none" points="73,288.2539,77,292.2539,73,296.2539,69,292.2539" style="stroke: #B38D22; stroke-width: 1.0;"/><text fill="#000000" font-family="sans-serif" font-size="11" lengthAdjust="spacingAndGlyphs" textLength="93" x="82" y="295.562">start_block_num</text><polygon fill="none" points="73,301.0586,77,305.0586,73,309.0586,69,305.0586" style="stroke: #B38D22; stroke-width: 1.0;"/><text fill="#000000" font-family="sans-serif" font-size="11" lengthAdjust="spacingAndGlyphs" textLength="58" x="82" y="308.3667">username</text><line style="stroke: #A80036; stroke-width: 1.5;" x1="63" x2="201" y1="314.9609" y2="314.9609"/><!--class roles--><rect fill="#FEFECE" filter="url(#fgwsga6pcyb1h)" height="176.0469" id="roles" style="stroke: #A80036; stroke-width: 1.5;" width="139" x="237.5" y="127.5"/><ellipse cx="287.25" cy="143.5" fill="#ADD8E6" rx="11" ry="11" style="stroke: #A80036; stroke-width: 1.0;"/><path d="M287.6875,141.0313 L287.6875,147.5469 L288.8125,147.5469 C289.2656,147.5469 289.4063,147.5781 289.5625,147.7031 C289.7969,147.875 289.9219,148.125 289.9219,148.4063 C289.9219,148.6875 289.7813,148.9844 289.5156,149.125 C289.4063,149.2031 289.1406,149.25 288.8125,149.25 L284.875,149.25 C284.4844,149.25 284.2656,149.2031 284.1094,149.0781 C283.8906,148.9219 283.75,148.6563 283.75,148.4063 C283.75,148.1094 283.9063,147.8281 284.1563,147.6719 C284.3125,147.5625 284.4375,147.5469 284.875,147.5469 L285.9844,147.5469 L285.9844,141.0313 L284.1563,141.0313 L284.1563,142.625 C284.1563,143.0781 284.125,143.2188 284.0156,143.3906 C283.8438,143.6094 283.5938,143.7344 283.3125,143.7344 C283.0313,143.7344 282.7344,143.5938 282.5781,143.3281 C282.5,143.1875 282.4688,143.0156 282.4688,142.625 L282.4688,139.3438 L291.2344,139.3438 L291.2344,142.625 C291.2344,143.0938 291.2188,143.2188 291.0781,143.3906 C290.9063,143.6094 290.6563,143.7344 290.3906,143.7344 C290.0938,143.7344 289.8125,143.5781 289.6563,143.3281 C289.5625,143.1875 289.5313,143.0156 289.5313,142.625 L289.5313,141.0313 Z "/><text fill="#000000" font-family="sans-serif" font-size="12" lengthAdjust="spacingAndGlyphs" textLength="31" x="307.75" y="147.6543">roles</text><line style="stroke: #A80036; stroke-width: 1.5;" x1="238.5" x2="375.5" y1="159.5" y2="159.5"/><polygon fill="none" points="248.5,166.4023,252.5,170.4023,248.5,174.4023,244.5,170.4023" style="stroke: #B38D22; stroke-width: 1.0;"/><text fill="#000000" font-family="sans-serif" font-size="11" lengthAdjust="spacingAndGlyphs" textLength="74" x="257.5" y="173.7104">created_date</text><polygon fill="none" points="248.5,179.207,252.5,183.207,248.5,187.207,244.5,183.207" style="stroke: #B38D22; stroke-width: 1.0;"/><text fill="#000000" font-family="sans-serif" font-size="11" lengthAdjust="spacingAndGlyphs" textLength="63" x="257.5" y="186.5151">description</text><polygon fill="none" points="248.5,192.0117,252.5,196.0117,248.5,200.0117,244.5,196.0117" style="stroke: #B38D22; stroke-width: 1.0;"/><text fill="#000000" font-family="sans-serif" font-size="11" lengthAdjust="spacingAndGlyphs" textLength="87" x="257.5" y="199.3198">end_block_num</text><polygon fill="none" points="248.5,204.8164,252.5,208.8164,248.5,212.8164,244.5,208.8164" style="stroke: #B38D22; stroke-width: 1.0;"/><text fill="#000000" font-family="sans-serif" font-size="11" lengthAdjust="spacingAndGlyphs" textLength="10" x="257.5" y="212.1245">id</text><polygon fill="none" points="248.5,217.6211,252.5,221.6211,248.5,225.6211,244.5,221.6211" style="stroke: #B38D22; stroke-width: 1.0;"/><text fill="#000000" font-family="sans-serif" font-size="11" lengthAdjust="spacingAndGlyphs" textLength="58" x="257.5" y="224.9292">metadata:</text><polygon fill="none" points="248.5,230.4258,252.5,234.4258,248.5,238.4258,244.5,234.4258" style="stroke: #B38D22; stroke-width: 1.0;"/><text fill="#000000" font-family="sans-serif" font-size="11" lengthAdjust="spacingAndGlyphs" textLength="81" x="289.5" y="237.7339">sync_direction</text><polygon fill="none" points="248.5,243.2305,252.5,247.2305,248.5,251.2305,244.5,247.2305" style="stroke: #B38D22; stroke-width: 1.0;"/><text fill="#000000" font-family="sans-serif" font-size="11" lengthAdjust="spacingAndGlyphs" textLength="32" x="257.5" y="250.5386">name</text><polygon fill="none" points="248.5,256.0352,252.5,260.0352,248.5,264.0352,244.5,260.0352" style="stroke: #B38D22; stroke-width: 1.0;"/><text fill="#000000" font-family="sans-serif" font-size="11" lengthAdjust="spacingAndGlyphs" textLength="57" x="257.5" y="263.3433">remote_id</text><polygon fill="none" points="248.5,268.8398,252.5,272.8398,248.5,276.8398,244.5,272.8398" style="stroke: #B38D22; stroke-width: 1.0;"/><text fill="#000000" font-family="sans-serif" font-size="11" lengthAdjust="spacingAndGlyphs" textLength="38" x="257.5" y="276.1479">role_id</text><polygon fill="none" points="248.5,281.6445,252.5,285.6445,248.5,289.6445,244.5,285.6445" style="stroke: #B38D22; stroke-width: 1.0;"/><text fill="#000000" font-family="sans-serif" font-size="11" lengthAdjust="spacingAndGlyphs" textLength="93" x="257.5" y="288.9526">start_block_num</text><line style="stroke: #A80036; stroke-width: 1.5;" x1="238.5" x2="375.5" y1="295.5469" y2="295.5469"/><!--class role_members--><rect fill="#FEFECE" filter="url(#fgwsga6pcyb1h)" height="163.2422" id="role_members" style="stroke: #A80036; stroke-width: 1.5;" width="120" x="412" y="134"/><ellipse cx="427" cy="150" fill="#ADD8E6" rx="11" ry="11" style="stroke: #A80036; stroke-width: 1.0;"/><path d="M427.4375,147.5313 L427.4375,154.0469 L428.5625,154.0469 C429.0156,154.0469 429.1563,154.0781 429.3125,154.2031 C429.5469,154.375 429.6719,154.625 429.6719,154.9063 C429.6719,155.1875 429.5313,155.4844 429.2656,155.625 C429.1563,155.7031 428.8906,155.75 428.5625,155.75 L424.625,155.75 C424.2344,155.75 424.0156,155.7031 423.8594,155.5781 C423.6406,155.4219 423.5,155.1563 423.5,154.9063 C423.5,154.6094 423.6563,154.3281 423.9063,154.1719 C424.0625,154.0625 424.1875,154.0469 424.625,154.0469 L425.7344,154.0469 L425.7344,147.5313 L423.9063,147.5313 L423.9063,149.125 C423.9063,149.5781 423.875,149.7188 423.7656,149.8906 C423.5938,150.1094 423.3438,150.2344 423.0625,150.2344 C422.7813,150.2344 422.4844,150.0938 422.3281,149.8281 C422.25,149.6875 422.2188,149.5156 422.2188,149.125 L422.2188,145.8438 L430.9844,145.8438 L430.9844,149.125 C430.9844,149.5938 430.9688,149.7188 430.8281,149.8906 C430.6563,150.1094 430.4063,150.2344 430.1406,150.2344 C429.8438,150.2344 429.5625,150.0781 429.4063,149.8281 C429.3125,149.6875 429.2813,149.5156 429.2813,149.125 L429.2813,147.5313 Z "/><text fill="#000000" font-family="sans-serif" font-size="12" lengthAdjust="spacingAndGlyphs" textLength="88" x="441" y="154.1543">role_members</text><line style="stroke: #A80036; stroke-width: 1.5;" x1="413" x2="531" y1="166" y2="166"/><polygon fill="none" points="423,172.9023,427,176.9023,423,180.9023,419,176.9023" style="stroke: #B38D22; stroke-width: 1.0;"/><text fill="#000000" font-family="sans-serif" font-size="11" lengthAdjust="spacingAndGlyphs" textLength="74" x="432" y="180.2104">created_date</text><polygon fill="none" points="423,185.707,427,189.707,423,193.707,419,189.707" style="stroke: #B38D22; stroke-width: 1.0;"/><text fill="#000000" font-family="sans-serif" font-size="11" lengthAdjust="spacingAndGlyphs" textLength="87" x="432" y="193.0151">end_block_num</text><polygon fill="none" points="423,198.5117,427,202.5117,423,206.5117,419,202.5117" style="stroke: #B38D22; stroke-width: 1.0;"/><text fill="#000000" font-family="sans-serif" font-size="11" lengthAdjust="spacingAndGlyphs" textLength="87" x="432" y="205.8198">expiration_date</text><polygon fill="none" points="423,211.3164,427,215.3164,423,219.3164,419,215.3164" style="stroke: #B38D22; stroke-width: 1.0;"/><text fill="#000000" font-family="sans-serif" font-size="11" lengthAdjust="spacingAndGlyphs" textLength="10" x="432" y="218.6245">id</text><polygon fill="none" points="423,224.1211,427,228.1211,423,232.1211,419,228.1211" style="stroke: #B38D22; stroke-width: 1.0;"/><text fill="#000000" font-family="sans-serif" font-size="11" lengthAdjust="spacingAndGlyphs" textLength="57" x="432" y="231.4292">identifiers</text><polygon fill="none" points="423,236.9258,427,240.9258,423,244.9258,419,240.9258" style="stroke: #B38D22; stroke-width: 1.0;"/><text fill="#000000" font-family="sans-serif" font-size="11" lengthAdjust="spacingAndGlyphs" textLength="50" x="432" y="244.2339">object_id</text><polygon fill="none" points="423,249.7305,427,253.7305,423,257.7305,419,253.7305" style="stroke: #B38D22; stroke-width: 1.0;"/><text fill="#000000" font-family="sans-serif" font-size="11" lengthAdjust="spacingAndGlyphs" textLength="56" x="432" y="257.0386">related_id</text><polygon fill="none" points="423,262.5352,427,266.5352,423,270.5352,419,266.5352" style="stroke: #B38D22; stroke-width: 1.0;"/><text fill="#000000" font-family="sans-serif" font-size="11" lengthAdjust="spacingAndGlyphs" textLength="38" x="432" y="269.8433">role_id</text><polygon fill="none" points="423,275.3398,427,279.3398,423,283.3398,419,279.3398" style="stroke: #B38D22; stroke-width: 1.0;"/><text fill="#000000" font-family="sans-serif" font-size="11" lengthAdjust="spacingAndGlyphs" textLength="93" x="432" y="282.6479">start_block_num</text><line style="stroke: #A80036; stroke-width: 1.5;" x1="413" x2="531" y1="289.2422" y2="289.2422"/><!--class role_admins--><rect fill="#FEFECE" filter="url(#fgwsga6pcyb1h)" height="48" id="role_admins" style="stroke: #A80036; stroke-width: 1.5;" width="107" x="567.5" y="191.5"/><ellipse cx="582.5" cy="207.5" fill="#ADD8E6" rx="11" ry="11" style="stroke: #A80036; stroke-width: 1.0;"/><path d="M582.9375,205.0313 L582.9375,211.5469 L584.0625,211.5469 C584.5156,211.5469 584.6563,211.5781 584.8125,211.7031 C585.0469,211.875 585.1719,212.125 585.1719,212.4063 C585.1719,212.6875 585.0313,212.9844 584.7656,213.125 C584.6563,213.2031 584.3906,213.25 584.0625,213.25 L580.125,213.25 C579.7344,213.25 579.5156,213.2031 579.3594,213.0781 C579.1406,212.9219 579,212.6563 579,212.4063 C579,212.1094 579.1563,211.8281 579.4063,211.6719 C579.5625,211.5625 579.6875,211.5469 580.125,211.5469 L581.2344,211.5469 L581.2344,205.0313 L579.4063,205.0313 L579.4063,206.625 C579.4063,207.0781 579.375,207.2188 579.2656,207.3906 C579.0938,207.6094 578.8438,207.7344 578.5625,207.7344 C578.2813,207.7344 577.9844,207.5938 577.8281,207.3281 C577.75,207.1875 577.7188,207.0156 577.7188,206.625 L577.7188,203.3438 L586.4844,203.3438 L586.4844,206.625 C586.4844,207.0938 586.4688,207.2188 586.3281,207.3906 C586.1563,207.6094 585.9063,207.7344 585.6406,207.7344 C585.3438,207.7344 585.0625,207.5781 584.9063,207.3281 C584.8125,207.1875 584.7813,207.0156 584.7813,206.625 L584.7813,205.0313 Z "/><text fill="#000000" font-family="sans-serif" font-size="12" lengthAdjust="spacingAndGlyphs" textLength="75" x="596.5" y="211.6543">role_admins</text><line style="stroke: #A80036; stroke-width: 1.5;" x1="568.5" x2="673.5" y1="223.5" y2="223.5"/><line style="stroke: #A80036; stroke-width: 1.5;" x1="568.5" x2="673.5" y1="231.5" y2="231.5"/><!--class role_owners--><rect fill="#FEFECE" filter="url(#fgwsga6pcyb1h)" height="150.4375" id="role_owners" style="stroke: #A80036; stroke-width: 1.5;" width="119" x="72.5" y="440.5"/><ellipse cx="92.9" cy="456.5" fill="#ADD8E6" rx="11" ry="11" style="stroke: #A80036; stroke-width: 1.0;"/><path d="M93.3375,454.0313 L93.3375,460.5469 L94.4625,460.5469 C94.9156,460.5469 95.0563,460.5781 95.2125,460.7031 C95.4469,460.875 95.5719,461.125 95.5719,461.4063 C95.5719,461.6875 95.4313,461.9844 95.1656,462.125 C95.0563,462.2031 94.7906,462.25 94.4625,462.25 L90.525,462.25 C90.1344,462.25 89.9156,462.2031 89.7594,462.0781 C89.5406,461.9219 89.4,461.6563 89.4,461.4063 C89.4,461.1094 89.5563,460.8281 89.8063,460.6719 C89.9625,460.5625 90.0875,460.5469 90.525,460.5469 L91.6344,460.5469 L91.6344,454.0313 L89.8063,454.0313 L89.8063,455.625 C89.8063,456.0781 89.775,456.2188 89.6656,456.3906 C89.4938,456.6094 89.2438,456.7344 88.9625,456.7344 C88.6813,456.7344 88.3844,456.5938 88.2281,456.3281 C88.15,456.1875 88.1188,456.0156 88.1188,455.625 L88.1188,452.3438 L96.8844,452.3438 L96.8844,455.625 C96.8844,456.0938 96.8688,456.2188 96.7281,456.3906 C96.5563,456.6094 96.3063,456.7344 96.0406,456.7344 C95.7438,456.7344 95.4625,456.5781 95.3063,456.3281 C95.2125,456.1875 95.1813,456.0156 95.1813,455.625 L95.1813,454.0313 Z "/><text fill="#000000" font-family="sans-serif" font-size="12" lengthAdjust="spacingAndGlyphs" textLength="75" x="108.1" y="460.6543">role_owners</text><line style="stroke: #A80036; stroke-width: 1.5;" x1="73.5" x2="190.5" y1="472.5" y2="472.5"/><polygon fill="none" points="83.5,479.4023,87.5,483.4023,83.5,487.4023,79.5,483.4023" style="stroke: #B38D22; stroke-width: 1.0;"/><text fill="#000000" font-family="sans-serif" font-size="11" lengthAdjust="spacingAndGlyphs" textLength="74" x="92.5" y="486.7104">created_date</text><polygon fill="none" points="83.5,492.207,87.5,496.207,83.5,500.207,79.5,496.207" style="stroke: #B38D22; stroke-width: 1.0;"/><text fill="#000000" font-family="sans-serif" font-size="11" lengthAdjust="spacingAndGlyphs" textLength="87" x="92.5" y="499.5151">end_block_num</text><polygon fill="none" points="83.5,505.0117,87.5,509.0117,83.5,513.0117,79.5,509.0117" style="stroke: #B38D22; stroke-width: 1.0;"/><text fill="#000000" font-family="sans-serif" font-size="11" lengthAdjust="spacingAndGlyphs" textLength="10" x="92.5" y="512.3198">id</text><polygon fill="none" points="83.5,517.8164,87.5,521.8164,83.5,525.8164,79.5,521.8164" style="stroke: #B38D22; stroke-width: 1.0;"/><text fill="#000000" font-family="sans-serif" font-size="11" lengthAdjust="spacingAndGlyphs" textLength="57" x="92.5" y="525.1245">identifiers</text><polygon fill="none" points="83.5,530.6211,87.5,534.6211,83.5,538.6211,79.5,534.6211" style="stroke: #B38D22; stroke-width: 1.0;"/><text fill="#000000" font-family="sans-serif" font-size="11" lengthAdjust="spacingAndGlyphs" textLength="50" x="92.5" y="537.9292">object_id</text><polygon fill="none" points="83.5,543.4258,87.5,547.4258,83.5,551.4258,79.5,547.4258" style="stroke: #B38D22; stroke-width: 1.0;"/><text fill="#000000" font-family="sans-serif" font-size="11" lengthAdjust="spacingAndGlyphs" textLength="56" x="92.5" y="550.7339">related_id</text><polygon fill="none" points="83.5,556.2305,87.5,560.2305,83.5,564.2305,79.5,560.2305" style="stroke: #B38D22; stroke-width: 1.0;"/><text fill="#000000" font-family="sans-serif" font-size="11" lengthAdjust="spacingAndGlyphs" textLength="38" x="92.5" y="563.5386">role_id</text><polygon fill="none" points="83.5,569.0352,87.5,573.0352,83.5,577.0352,79.5,573.0352" style="stroke: #B38D22; stroke-width: 1.0;"/><text fill="#000000" font-family="sans-serif" font-size="11" lengthAdjust="spacingAndGlyphs" textLength="93" x="92.5" y="576.3433">start_block_num</text><line style="stroke: #A80036; stroke-width: 1.5;" x1="73.5" x2="190.5" y1="582.9375" y2="582.9375"/><!--class proposals--><rect fill="#FEFECE" filter="url(#fgwsga6pcyb1h)" height="252.875" id="proposals" style="stroke: #A80036; stroke-width: 1.5;" width="135" x="226.5" y="389"/><ellipse cx="259.95" cy="405" fill="#ADD8E6" rx="11" ry="11" style="stroke: #A80036; stroke-width: 1.0;"/><path d="M260.3875,402.5313 L260.3875,409.0469 L261.5125,409.0469 C261.9656,409.0469 262.1063,409.0781 262.2625,409.2031 C262.4969,409.375 262.6219,409.625 262.6219,409.9063 C262.6219,410.1875 262.4813,410.4844 262.2156,410.625 C262.1063,410.7031 261.8406,410.75 261.5125,410.75 L257.575,410.75 C257.1844,410.75 256.9656,410.7031 256.8094,410.5781 C256.5906,410.4219 256.45,410.1563 256.45,409.9063 C256.45,409.6094 256.6063,409.3281 256.8563,409.1719 C257.0125,409.0625 257.1375,409.0469 257.575,409.0469 L258.6844,409.0469 L258.6844,402.5313 L256.8563,402.5313 L256.8563,404.125 C256.8563,404.5781 256.825,404.7188 256.7156,404.8906 C256.5438,405.1094 256.2938,405.2344 256.0125,405.2344 C255.7313,405.2344 255.4344,405.0938 255.2781,404.8281 C255.2,404.6875 255.1688,404.5156 255.1688,404.125 L255.1688,400.8438 L263.9344,400.8438 L263.9344,404.125 C263.9344,404.5938 263.9188,404.7188 263.7781,404.8906 C263.6063,405.1094 263.3563,405.2344 263.0906,405.2344 C262.7938,405.2344 262.5125,405.0781 262.3563,404.8281 C262.2625,404.6875 262.2313,404.5156 262.2313,404.125 L262.2313,402.5313 Z "/><text fill="#000000" font-family="sans-serif" font-size="12" lengthAdjust="spacingAndGlyphs" textLength="62" x="278.05" y="409.1543">proposals</text><line style="stroke: #A80036; stroke-width: 1.5;" x1="227.5" x2="360.5" y1="421" y2="421"/><polygon fill="none" points="237.5,427.9023,241.5,431.9023,237.5,435.9023,233.5,431.9023" style="stroke: #B38D22; stroke-width: 1.0;"/><text fill="#000000" font-family="sans-serif" font-size="11" lengthAdjust="spacingAndGlyphs" textLength="109" x="246.5" y="435.2104">assigned_approver</text><polygon fill="none" points="237.5,440.707,241.5,444.707,237.5,448.707,233.5,444.707" style="stroke: #B38D22; stroke-width: 1.0;"/><text fill="#000000" font-family="sans-serif" font-size="11" lengthAdjust="spacingAndGlyphs" textLength="76" x="246.5" y="448.0151">close_reason</text><polygon fill="none" points="237.5,453.5117,241.5,457.5117,237.5,461.5117,233.5,457.5117" style="stroke: #B38D22; stroke-width: 1.0;"/><text fill="#000000" font-family="sans-serif" font-size="11" lengthAdjust="spacingAndGlyphs" textLength="35" x="246.5" y="460.8198">closer</text><polygon fill="none" points="237.5,466.3164,241.5,470.3164,237.5,474.3164,233.5,470.3164" style="stroke: #B38D22; stroke-width: 1.0;"/><text fill="#000000" font-family="sans-serif" font-size="11" lengthAdjust="spacingAndGlyphs" textLength="74" x="246.5" y="473.6245">created_date</text><polygon fill="none" points="237.5,479.1211,241.5,483.1211,237.5,487.1211,233.5,483.1211" style="stroke: #B38D22; stroke-width: 1.0;"/><text fill="#000000" font-family="sans-serif" font-size="11" lengthAdjust="spacingAndGlyphs" textLength="87" x="246.5" y="486.4292">end_block_num</text><polygon fill="none" points="237.5,491.9258,241.5,495.9258,237.5,499.9258,233.5,495.9258" style="stroke: #B38D22; stroke-width: 1.0;"/><text fill="#000000" font-family="sans-serif" font-size="11" lengthAdjust="spacingAndGlyphs" textLength="10" x="246.5" y="499.2339">id</text><polygon fill="none" points="237.5,504.7305,241.5,508.7305,237.5,512.7305,233.5,508.7305" style="stroke: #B38D22; stroke-width: 1.0;"/><text fill="#000000" font-family="sans-serif" font-size="11" lengthAdjust="spacingAndGlyphs" textLength="54" x="246.5" y="512.0386">metadata</text><polygon fill="none" points="237.5,517.5352,241.5,521.5352,237.5,525.5352,233.5,521.5352" style="stroke: #B38D22; stroke-width: 1.0;"/><text fill="#000000" font-family="sans-serif" font-size="11" lengthAdjust="spacingAndGlyphs" textLength="50" x="246.5" y="524.8433">object_id</text><polygon fill="none" points="237.5,530.3398,241.5,534.3398,237.5,538.3398,233.5,534.3398" style="stroke: #B38D22; stroke-width: 1.0;"/><text fill="#000000" font-family="sans-serif" font-size="11" lengthAdjust="spacingAndGlyphs" textLength="74" x="246.5" y="537.6479">open_reason</text><polygon fill="none" points="237.5,543.1445,241.5,547.1445,237.5,551.1445,233.5,547.1445" style="stroke: #B38D22; stroke-width: 1.0;"/><text fill="#000000" font-family="sans-serif" font-size="11" lengthAdjust="spacingAndGlyphs" textLength="40" x="246.5" y="550.4526">opener</text><polygon fill="none" points="237.5,555.9492,241.5,559.9492,237.5,563.9492,233.5,559.9492" style="stroke: #B38D22; stroke-width: 1.0;"/><text fill="#000000" font-family="sans-serif" font-size="11" lengthAdjust="spacingAndGlyphs" textLength="42" x="246.5" y="563.2573">pack_id</text><polygon fill="none" points="237.5,568.7539,241.5,572.7539,237.5,576.7539,233.5,572.7539" style="stroke: #B38D22; stroke-width: 1.0;"/><text fill="#000000" font-family="sans-serif" font-size="11" lengthAdjust="spacingAndGlyphs" textLength="66" x="246.5" y="576.062">proposal_id</text><polygon fill="none" points="237.5,581.5586,241.5,585.5586,237.5,589.5586,233.5,585.5586" style="stroke: #B38D22; stroke-width: 1.0;"/><text fill="#000000" font-family="sans-serif" font-size="11" lengthAdjust="spacingAndGlyphs" textLength="80" x="246.5" y="588.8667">proposal_type</text><polygon fill="none" points="237.5,594.3633,241.5,598.3633,237.5,602.3633,233.5,598.3633" style="stroke: #B38D22; stroke-width: 1.0;"/><text fill="#000000" font-family="sans-serif" font-size="11" lengthAdjust="spacingAndGlyphs" textLength="56" x="246.5" y="601.6714">related_id</text><polygon fill="none" points="237.5,607.168,241.5,611.168,237.5,615.168,233.5,611.168" style="stroke: #B38D22; stroke-width: 1.0;"/><text fill="#000000" font-family="sans-serif" font-size="11" lengthAdjust="spacingAndGlyphs" textLength="93" x="246.5" y="614.4761">start_block_num</text><polygon fill="none" points="237.5,619.9727,241.5,623.9727,237.5,627.9727,233.5,623.9727" style="stroke: #B38D22; stroke-width: 1.0;"/><text fill="#000000" font-family="sans-serif" font-size="11" lengthAdjust="spacingAndGlyphs" textLength="36" x="246.5" y="627.2808">status</text><line style="stroke: #A80036; stroke-width: 1.5;" x1="227.5" x2="360.5" y1="633.875" y2="633.875"/><!--class packs--><rect fill="#FEFECE" filter="url(#fgwsga6pcyb1h)" height="48" id="packs" style="stroke: #A80036; stroke-width: 1.5;" width="69" x="396.5" y="491.5"/><ellipse cx="411.5" cy="507.5" fill="#ADD8E6" rx="11" ry="11" style="stroke: #A80036; stroke-width: 1.0;"/><path d="M411.9375,505.0313 L411.9375,511.5469 L413.0625,511.5469 C413.5156,511.5469 413.6563,511.5781 413.8125,511.7031 C414.0469,511.875 414.1719,512.125 414.1719,512.4063 C414.1719,512.6875 414.0313,512.9844 413.7656,513.125 C413.6563,513.2031 413.3906,513.25 413.0625,513.25 L409.125,513.25 C408.7344,513.25 408.5156,513.2031 408.3594,513.0781 C408.1406,512.9219 408,512.6563 408,512.4063 C408,512.1094 408.1563,511.8281 408.4063,511.6719 C408.5625,511.5625 408.6875,511.5469 409.125,511.5469 L410.2344,511.5469 L410.2344,505.0313 L408.4063,505.0313 L408.4063,506.625 C408.4063,507.0781 408.375,507.2188 408.2656,507.3906 C408.0938,507.6094 407.8438,507.7344 407.5625,507.7344 C407.2813,507.7344 406.9844,507.5938 406.8281,507.3281 C406.75,507.1875 406.7188,507.0156 406.7188,506.625 L406.7188,503.3438 L415.4844,503.3438 L415.4844,506.625 C415.4844,507.0938 415.4688,507.2188 415.3281,507.3906 C415.1563,507.6094 414.9063,507.7344 414.6406,507.7344 C414.3438,507.7344 414.0625,507.5781 413.9063,507.3281 C413.8125,507.1875 413.7813,507.0156 413.7813,506.625 L413.7813,505.0313 Z "/><text fill="#000000" font-family="sans-serif" font-size="12" lengthAdjust="spacingAndGlyphs" textLength="37" x="425.5" y="511.6543">packs</text><line style="stroke: #A80036; stroke-width: 1.5;" x1="397.5" x2="464.5" y1="523.5" y2="523.5"/><line style="stroke: #A80036; stroke-width: 1.5;" x1="397.5" x2="464.5" y1="531.5" y2="531.5"/><!--class pack_owners--><rect fill="#FEFECE" filter="url(#fgwsga6pcyb1h)" height="48" id="pack_owners" style="stroke: #A80036; stroke-width: 1.5;" width="113" x="500.5" y="491.5"/><ellipse cx="515.5" cy="507.5" fill="#ADD8E6" rx="11" ry="11" style="stroke: #A80036; stroke-width: 1.0;"/><path d="M515.9375,505.0313 L515.9375,511.5469 L517.0625,511.5469 C517.5156,511.5469 517.6563,511.5781 517.8125,511.7031 C518.0469,511.875 518.1719,512.125 518.1719,512.4063 C518.1719,512.6875 518.0313,512.9844 517.7656,513.125 C517.6563,513.2031 517.3906,513.25 517.0625,513.25 L513.125,513.25 C512.7344,513.25 512.5156,513.2031 512.3594,513.0781 C512.1406,512.9219 512,512.6563 512,512.4063 C512,512.1094 512.1563,511.8281 512.4063,511.6719 C512.5625,511.5625 512.6875,511.5469 513.125,511.5469 L514.2344,511.5469 L514.2344,505.0313 L512.4063,505.0313 L512.4063,506.625 C512.4063,507.0781 512.375,507.2188 512.2656,507.3906 C512.0938,507.6094 511.8438,507.7344 511.5625,507.7344 C511.2813,507.7344 510.9844,507.5938 510.8281,507.3281 C510.75,507.1875 510.7188,507.0156 510.7188,506.625 L510.7188,503.3438 L519.4844,503.3438 L519.4844,506.625 C519.4844,507.0938 519.4688,507.2188 519.3281,507.3906 C519.1563,507.6094 518.9063,507.7344 518.6406,507.7344 C518.3438,507.7344 518.0625,507.5781 517.9063,507.3281 C517.8125,507.1875 517.7813,507.0156 517.7813,506.625 L517.7813,505.0313 Z "/><text fill="#000000" font-family="sans-serif" font-size="12" lengthAdjust="spacingAndGlyphs" textLength="81" x="529.5" y="511.6543">pack_owners</text><line style="stroke: #A80036; stroke-width: 1.5;" x1="501.5" x2="612.5" y1="523.5" y2="523.5"/><line style="stroke: #A80036; stroke-width: 1.5;" x1="501.5" x2="612.5" y1="531.5" y2="531.5"/><!--class tasks--><rect fill="#FEFECE" filter="url(#fgwsga6pcyb1h)" height="48" id="tasks" style="stroke: #A80036; stroke-width: 1.5;" width="66" x="99" y="702"/><ellipse cx="114" cy="718" fill="#ADD8E6" rx="11" ry="11" style="stroke: #A80036; stroke-width: 1.0;"/><path d="M114.4375,715.5313 L114.4375,722.0469 L115.5625,722.0469 C116.0156,722.0469 116.1563,722.0781 116.3125,722.2031 C116.5469,722.375 116.6719,722.625 116.6719,722.9063 C116.6719,723.1875 116.5313,723.4844 116.2656,723.625 C116.1563,723.7031 115.8906,723.75 115.5625,723.75 L111.625,723.75 C111.2344,723.75 111.0156,723.7031 110.8594,723.5781 C110.6406,723.4219 110.5,723.1563 110.5,722.9063 C110.5,722.6094 110.6563,722.3281 110.9063,722.1719 C111.0625,722.0625 111.1875,722.0469 111.625,722.0469 L112.7344,722.0469 L112.7344,715.5313 L110.9063,715.5313 L110.9063,717.125 C110.9063,717.5781 110.875,717.7188 110.7656,717.8906 C110.5938,718.1094 110.3438,718.2344 110.0625,718.2344 C109.7813,718.2344 109.4844,718.0938 109.3281,717.8281 C109.25,717.6875 109.2188,717.5156 109.2188,717.125 L109.2188,713.8438 L117.9844,713.8438 L117.9844,717.125 C117.9844,717.5938 117.9688,717.7188 117.8281,717.8906 C117.6563,718.1094 117.4063,718.2344 117.1406,718.2344 C116.8438,718.2344 116.5625,718.0781 116.4063,717.8281 C116.3125,717.6875 116.2813,717.5156 116.2813,717.125 L116.2813,715.5313 Z "/><text fill="#000000" font-family="sans-serif" font-size="12" lengthAdjust="spacingAndGlyphs" textLength="34" x="128" y="722.1543">tasks</text><line style="stroke: #A80036; stroke-width: 1.5;" x1="100" x2="164" y1="734" y2="734"/><line style="stroke: #A80036; stroke-width: 1.5;" x1="100" x2="164" y1="742" y2="742"/><!--class task_owners--><rect fill="#FEFECE" filter="url(#fgwsga6pcyb1h)" height="48" id="task_owners" style="stroke: #A80036; stroke-width: 1.5;" width="110" x="200" y="702"/><ellipse cx="215" cy="718" fill="#ADD8E6" rx="11" ry="11" style="stroke: #A80036; stroke-width: 1.0;"/><path d="M215.4375,715.5313 L215.4375,722.0469 L216.5625,722.0469 C217.0156,722.0469 217.1563,722.0781 217.3125,722.2031 C217.5469,722.375 217.6719,722.625 217.6719,722.9063 C217.6719,723.1875 217.5313,723.4844 217.2656,723.625 C217.1563,723.7031 216.8906,723.75 216.5625,723.75 L212.625,723.75 C212.2344,723.75 212.0156,723.7031 211.8594,723.5781 C211.6406,723.4219 211.5,723.1563 211.5,722.9063 C211.5,722.6094 211.6563,722.3281 211.9063,722.1719 C212.0625,722.0625 212.1875,722.0469 212.625,722.0469 L213.7344,722.0469 L213.7344,715.5313 L211.9063,715.5313 L211.9063,717.125 C211.9063,717.5781 211.875,717.7188 211.7656,717.8906 C211.5938,718.1094 211.3438,718.2344 211.0625,718.2344 C210.7813,718.2344 210.4844,718.0938 210.3281,717.8281 C210.25,717.6875 210.2188,717.5156 210.2188,717.125 L210.2188,713.8438 L218.9844,713.8438 L218.9844,717.125 C218.9844,717.5938 218.9688,717.7188 218.8281,717.8906 C218.6563,718.1094 218.4063,718.2344 218.1406,718.2344 C217.8438,718.2344 217.5625,718.0781 217.4063,717.8281 C217.3125,717.6875 217.2813,717.5156 217.2813,717.125 L217.2813,715.5313 Z "/><text fill="#000000" font-family="sans-serif" font-size="12" lengthAdjust="spacingAndGlyphs" textLength="78" x="229" y="722.1543">task_owners</text><line style="stroke: #A80036; stroke-width: 1.5;" x1="201" x2="309" y1="734" y2="734"/><line style="stroke: #A80036; stroke-width: 1.5;" x1="201" x2="309" y1="742" y2="742"/><!--class task_admins--><rect fill="#FEFECE" filter="url(#fgwsga6pcyb1h)" height="48" id="task_admins" style="stroke: #A80036; stroke-width: 1.5;" width="110" x="345" y="702"/><ellipse cx="360" cy="718" fill="#ADD8E6" rx="11" ry="11" style="stroke: #A80036; stroke-width: 1.0;"/><path d="M360.4375,715.5313 L360.4375,722.0469 L361.5625,722.0469 C362.0156,722.0469 362.1563,722.0781 362.3125,722.2031 C362.5469,722.375 362.6719,722.625 362.6719,722.9063 C362.6719,723.1875 362.5313,723.4844 362.2656,723.625 C362.1563,723.7031 361.8906,723.75 361.5625,723.75 L357.625,723.75 C357.2344,723.75 357.0156,723.7031 356.8594,723.5781 C356.6406,723.4219 356.5,723.1563 356.5,722.9063 C356.5,722.6094 356.6563,722.3281 356.9063,722.1719 C357.0625,722.0625 357.1875,722.0469 357.625,722.0469 L358.7344,722.0469 L358.7344,715.5313 L356.9063,715.5313 L356.9063,717.125 C356.9063,717.5781 356.875,717.7188 356.7656,717.8906 C356.5938,718.1094 356.3438,718.2344 356.0625,718.2344 C355.7813,718.2344 355.4844,718.0938 355.3281,717.8281 C355.25,717.6875 355.2188,717.5156 355.2188,717.125 L355.2188,713.8438 L363.9844,713.8438 L363.9844,717.125 C363.9844,717.5938 363.9688,717.7188 363.8281,717.8906 C363.6563,718.1094 363.4063,718.2344 363.1406,718.2344 C362.8438,718.2344 362.5625,718.0781 362.4063,717.8281 C362.3125,717.6875 362.2813,717.5156 362.2813,717.125 L362.2813,715.5313 Z "/><text fill="#000000" font-family="sans-serif" font-size="12" lengthAdjust="spacingAndGlyphs" textLength="78" x="374" y="722.1543">task_admins</text><line style="stroke: #A80036; stroke-width: 1.5;" x1="346" x2="454" y1="734" y2="734"/><line style="stroke: #A80036; stroke-width: 1.5;" x1="346" x2="454" y1="742" y2="742"/><!--link user_mapping to auth--><!--link auth to changelog--><!--link user_mapping to sync_tracker--><!--link sync_tracker to sync_errors--><!--link sync_errors to state--><!--link sync_tracker to state_history--><!--link users to roles--><!--link roles to role_members--><!--link role_members to role_admins--><!--link users to role_owners--><!--link role_owners to proposals--><!--link proposals to packs--><!--link packs to pack_owners--><!--link role_owners to tasks--><!--link tasks to task_owners--><!--link task_owners to task_admins--><!--
@startuml
allowmixing
    hide stereotype
    scale 1

    package "RethinkDB" {
        package "Off Chain Tables" {
            class user_mapping << (T,lightblue) >>{
                #active
                #encrypted_key
                #next_id
                #provider_id
                #public_key
                #remote_id
            }
            class auth << (T,lightblue) >>{
                #email
                #encrypted_private_key
                #next_id
                #public_key
                #username
            }
            class changelog << (T,lightblue) >>{
                #address
                #batch
                #data
                #data_type
                #id
                #next_id
                #object_id
                #object_type
                #private_key
                #provider_id
                #public_key
                #sync_direction
                #sync_type
                #timestamp
            }
            class user_mapping << (T,lightblue) >>{
                #active
                #encrypted_key
                #next_id
                #provider_id
                #public_key
                #remote_id
            }
            class sync_tracker << (T,lightblue) >>{
                #id
                #provider_id
                #source
                #sync_type
                #timestamp
            }
            class sync_errors << (T,lightblue) >> {

            }
            class state << (D,pink) Deprecated >> {

            }
            class state_history << (D,pink) Deprecated >> {

            }
            package "Queues"  {
                class inbound_queue << (T,lightblue) >>{

                }
                class outbound_queue << (T,lightblue) >>{
                    
                }
            }
        }
        package "On Chain Tables" {
            class users << (T,lightblue) >>{
                #created_date
                #distinguished_name
                #email
                #end_block_num
                #id
                #manager_id
                #metadata:
                #\tsync_direction
                #name
                #next_id
                #remote_id
                #start_block_num
                #username

            }
            class roles << (T,lightblue) >>{
                #created_date
                #description
                #end_block_num
                #id
                #metadata:
                #\tsync_direction
                #name
                #remote_id
                #role_id
                #start_block_num
            }
            class role_members << (T,lightblue) >>{
                #created_date
                #end_block_num
                #expiration_date
                #id
                #identifiers
                #object_id
                #related_id
                #role_id
                #start_block_num
            }
            class role_admins << (T,lightblue) >>{

            }
            class role_owners << (T,lightblue) >>{
                #created_date
                #end_block_num
                #id
                #identifiers
                #object_id
                #related_id
                #role_id
                #start_block_num
            }
            class proposals << (T,lightblue) >>{
                #assigned_approver
                #close_reason
                #closer
                #created_date
                #end_block_num
                #id
                #metadata
                #object_id
                #open_reason
                #opener
                #pack_id
                #proposal_id
                #proposal_type
                #related_id
                #start_block_num
                #status
            }
            class packs << (T,lightblue) >> {

            }
            class pack_owners << (T,lightblue) >> {

            }
            class tasks << (T,lightblue) >> {

            }
            class task_owners << (T,lightblue) >> {

            }
            class task_admins << (T,lightblue) >> {

            }
        }
    }
@enduml

PlantUML version 1.2019.05(Sat Apr 20 16:45:36 UTC 2019)
(GPL source distribution)
Java Runtime: Java(TM) SE Runtime Environment
JVM: Java HotSpot(TM) 64-Bit Server VM
Java Version: 1.7.0_25-b15
Operating System: Linux
Default Encoding: UTF-8
Language: en
Country: US
--></g></svg>