<svg xmlns="http://www.w3.org/2000/svg" width="64" height="22" viewBox="0 0 64 22"><path fill="#FFFFFF" fill-rule="nonzero" d="M35.43 7.372A7.555 7.555 0 0 1 32.9 22H13.708a7.678 7.678 0 0 1-7.626-6.776 7.68 7.68 0 0 1 5.83-8.374 6.259 6.259 0 0 1 7.376-3.684 9.341 9.341 0 0 1 16.141 4.206zm-2.531 11.349v.004a4.271 4.271 0 0 0 4.116-4.297 4.271 4.271 0 0 0-4.169-4.245 6.84 6.84 0 0 0 .037-.384v-.033c.013-.14.013-.272.013-.404a6.584 6.584 0 0 0-1.122-3.696 6.645 6.645 0 0 0-1.79-1.785 6.572 6.572 0 0 0-3.692-1.128c-.104 0-.207.007-.31.007h-.093l-.218.018-.1.01a9.987 9.987 0 0 0-.227.03l-.075.01c-.1.016-.198.033-.295.053l-.064.014a4.833 4.833 0 0 0-.229.053l-.095.025-.2.057-.091.027a6.104 6.104 0 0 0-.244.082l-.036.012c-.092.033-.182.07-.272.107l-.08.034-.19.086-.09.044a7.39 7.39 0 0 0-.186.095l-.075.04a7.659 7.659 0 0 0-.249.143l-.045.028-.199.132-.082.055-.16.114-.08.06a3.02 3.02 0 0 0-.174.132l-.052.042c-.073.06-.144.122-.214.185l-.065.06c-.05.045-.099.092-.146.14l-.074.075c-.044.045-.088.092-.132.14l-.066.07c-.062.07-.124.14-.183.213l-.026.033a6.34 6.34 0 0 0-.152.193l-.06.083a9.739 9.739 0 0 0-.11.154l-.06.09a7.578 7.578 0 0 0-.11.172l-.046.074c-.049.08-.095.161-.14.244l-.041.076c-.032.061-.062.122-.092.182l-.048.1-.078.172-.042.098a6.91 6.91 0 0 0-.088.223l-.019.049a3.199 3.199 0 0 0-3.89-.694 3.203 3.203 0 0 0-1.598 3.617 4.395 4.395 0 0 0-4.339 1.596 4.402 4.402 0 0 0 3.367 7.113H32.9zM0 14.455h3.42v3.338H0v-3.338zm42.609 0h3.42v3.338h-3.42v-3.338zm8.68 0h3.419v3.338h-3.42v-3.338zm8.68 0h3.419v3.338h-3.42v-3.338z"></path></svg>
