<?xml version="1.0" standalone="no"?>
<!DOCTYPE svg PUBLIC "-//W3C//DTD SVG 20010904//EN"
 "http://www.w3.org/TR/2001/REC-SVG-20010904/DTD/svg10.dtd">
<svg version="1.0" xmlns="http://www.w3.org/2000/svg"
 width="503.000000pt" height="503.000000pt" viewBox="0 0 503.000000 503.000000"
 preserveAspectRatio="xMidYMid meet">
<metadata>
Created by potrace 1.11, written by Peter Selinger 2001-2013
</metadata>
<g transform="translate(0.000000,503.000000) scale(0.100000,-0.100000)"
fill="#000000" stroke="none">
<path d="M670 4885 c-36 -8 -99 -31 -140 -52 -65 -32 -97 -59 -241 -202 -135
-136 -172 -179 -202 -237 -93 -181 -86 -385 20 -553 22 -35 238 -260 588 -611
380 -381 560 -569 576 -600 30 -58 32 -183 5 -245 -13 -28 -185 -208 -585
-610 -513 -516 -571 -577 -604 -641 -96 -187 -86 -392 29 -565 24 -36 110
-131 192 -211 127 -123 161 -152 230 -186 95 -48 196 -67 291 -58 77 8 224 55
286 92 24 13 299 278 612 587 618 613 611 606 747 630 82 14 168 1 251 -38 53
-25 110 -79 459 -434 703 -714 735 -745 797 -774 85 -40 175 -53 256 -38 120
22 162 50 346 230 185 182 218 225 247 319 33 107 23 217 -30 322 -15 31 -195
219 -599 625 -631 634 -610 608 -634 752 -14 78 1 165 43 249 27 55 99 129
623 644 325 320 616 608 645 639 134 140 166 325 86 490 -34 69 -325 369 -406
418 -124 75 -275 82 -403 19 -67 -33 -121 -84 -696 -647 -343 -336 -644 -624
-668 -641 -74 -52 -136 -71 -231 -72 -47 0 -103 6 -125 13 -32 11 -162 134
-685 656 -392 391 -663 653 -690 668 -113 64 -270 89 -390 62z m245 -260 c40
-20 242 -217 1016 -992 1071 -1073 1005 -998 1003 -1133 -1 -129 54 -68 -1017
-1137 -1077 -1075 -1002 -1009 -1137 -1007 -111 1 -161 31 -326 197 -168 170
-188 204 -188 322 0 64 4 89 23 125 16 31 202 225 585 610 509 511 566 572
599 636 86 167 88 342 6 507 -27 54 -106 137 -598 632 -636 639 -615 613 -615
750 0 119 19 152 190 322 141 140 187 174 261 193 55 13 141 2 198 -25z"/>
</g>
</svg>
